<svg width="217" height="207" viewBox="0 0 217 207" fill="none" xmlns="http://www.w3.org/2000/svg">
<path fill-rule="evenodd" clip-rule="evenodd" d="M0.670708 68.595C-0.710004 66.2036 0.109372 63.1456 2.50083 61.7649L108.319 0.670707C110.214 -0.423271 112.527 -0.136065 114.093 1.21995L185.91 51.5067V40.095C185.91 36.5052 188.82 33.595 192.41 33.595C196 33.595 198.91 36.5052 198.91 40.095V60.6094L213.869 71.0836C216.131 72.6675 216.68 75.7853 215.097 78.0473C213.513 80.3093 210.395 80.8591 208.133 79.2752L110.537 10.9375L7.50083 70.4251C5.10937 71.8059 2.05142 70.9865 0.670708 68.595ZM65.1798 83.7257C73.1127 88.4922 76.4306 97.5372 72.5906 103.928C68.7505 110.319 59.2067 111.636 51.2737 106.869C43.3408 102.103 40.0229 93.0577 43.863 86.6668C47.703 80.2759 57.2469 78.9591 65.1798 83.7257ZM91.41 92.095C99.4181 92.095 105.91 85.3793 105.91 77.095C105.91 68.8108 99.4181 62.095 91.41 62.095C83.4018 62.095 76.91 68.8108 76.91 77.095C76.91 85.3793 83.4018 92.095 91.41 92.095ZM139.048 90.7545C131.699 96.4966 122.197 96.6155 117.825 91.0202C113.454 85.4248 115.868 76.234 123.217 70.4919C130.567 64.7499 140.069 64.631 144.44 70.2263C148.812 75.8217 146.398 85.0125 139.048 90.7545ZM144.348 112.806C147.904 118.723 157.118 119.716 164.929 115.022C172.74 110.329 176.19 101.727 172.634 95.8096C169.079 89.8921 159.864 88.8998 152.053 93.5932C144.242 98.2865 140.792 106.888 144.348 112.806ZM91.9099 141.095C96.7099 138.295 102.91 137.595 105.41 137.595C108.327 137.243 110.654 138.061 113.308 138.994C116.114 139.98 119.286 141.095 123.91 141.095C131.11 141.095 134.91 134.428 135.91 131.095C137.077 118.762 132.61 94.295 105.41 95.095C78.2099 95.895 75.0766 119.428 76.9099 131.095C78.1099 141.895 87.4099 142.262 91.9099 141.095ZM16.5048 155.813C16.4648 155.621 16.4448 155.373 16.4448 155.069V152.741C16.9168 152.741 17.3048 152.761 17.6088 152.801C17.9128 152.841 18.1528 152.917 18.3288 153.029C18.5128 153.133 18.6488 153.289 18.7368 153.497C18.8248 153.697 18.8928 153.965 18.9408 154.301H19.3848V150.545H18.9408C18.9088 150.873 18.8528 151.137 18.7728 151.337C18.6928 151.537 18.5608 151.697 18.3768 151.817C18.1928 151.929 17.9448 152.005 17.6328 152.045C17.3288 152.085 16.9328 152.105 16.4448 152.105V148.637C16.4448 148.501 16.5168 148.433 16.6608 148.433H18.3168C18.7008 148.433 19.0248 148.465 19.2888 148.529C19.5528 148.593 19.7688 148.701 19.9368 148.853C20.1048 148.997 20.2328 149.189 20.3208 149.429C20.4168 149.661 20.4888 149.949 20.5368 150.293H21.0408L20.8968 147.761H13.5528V148.241C13.7928 148.257 13.9848 148.285 14.1288 148.325C14.2808 148.357 14.3968 148.425 14.4768 148.529C14.5568 148.625 14.6088 148.761 14.6328 148.937C14.6648 149.105 14.6808 149.329 14.6808 149.609V155.153C14.6808 155.433 14.6648 155.661 14.6328 155.837C14.6008 156.013 14.5408 156.149 14.4528 156.245C14.3648 156.341 14.2368 156.409 14.0688 156.449C13.9008 156.489 13.6848 156.513 13.4208 156.521V157.001H18.1968V156.521C17.8128 156.513 17.5048 156.489 17.2728 156.449C17.0488 156.409 16.8728 156.341 16.7448 156.245C16.6248 156.141 16.5448 155.997 16.5048 155.813ZM26.8303 151.853C26.8463 152.037 26.8543 152.289 26.8543 152.609V153.857C26.8543 154.665 26.7263 155.277 26.4703 155.693C26.2143 156.125 25.8503 156.341 25.3783 156.341C24.9383 156.341 24.6183 156.161 24.4183 155.801C24.2183 155.433 24.1183 154.845 24.1183 154.037V150.641H21.4303V151.121C21.6703 151.145 21.8583 151.177 21.9943 151.217C22.1303 151.249 22.2303 151.313 22.2943 151.409C22.3663 151.505 22.4103 151.649 22.4263 151.841C22.4423 152.025 22.4503 152.281 22.4503 152.609V154.229C22.4503 155.085 22.6223 155.745 22.9663 156.209C23.4143 156.817 24.0663 157.121 24.9223 157.121C25.3863 157.121 25.8063 157.029 26.1823 156.845C26.5583 156.661 26.8503 156.401 27.0583 156.065H27.1063L27.2383 157.133L29.6263 156.989V156.521C29.4263 156.521 29.2623 156.517 29.1343 156.509C29.0143 156.493 28.9183 156.469 28.8463 156.437C28.7743 156.397 28.7223 156.349 28.6903 156.293C28.6583 156.229 28.6303 156.145 28.6063 156.041C28.5743 155.905 28.5503 155.701 28.5343 155.429C28.5263 155.149 28.5223 154.765 28.5223 154.277V150.641H25.8103V151.121C26.0503 151.145 26.2383 151.177 26.3743 151.217C26.5183 151.249 26.6263 151.317 26.6983 151.421C26.7703 151.517 26.8143 151.661 26.8303 151.853ZM32.8901 155.825C32.8741 155.633 32.8661 155.373 32.8661 155.045V153.389C32.8661 153.141 32.8901 152.905 32.9381 152.681C32.9941 152.449 33.0581 152.261 33.1301 152.117C33.2661 151.861 33.4261 151.661 33.6101 151.517C33.7941 151.373 34.0141 151.301 34.2701 151.301C34.5341 151.301 34.7541 151.341 34.9301 151.421C35.1061 151.493 35.2461 151.617 35.3501 151.793C35.4621 151.961 35.5421 152.185 35.5901 152.465C35.6381 152.745 35.6621 153.089 35.6621 153.497V155.129C35.6621 155.425 35.6501 155.665 35.6261 155.849C35.6021 156.025 35.5541 156.161 35.4821 156.257C35.4101 156.353 35.3021 156.421 35.1581 156.461C35.0221 156.493 34.8341 156.513 34.5941 156.521V157.001H38.3501V156.521C38.1181 156.505 37.9341 156.481 37.7981 156.449C37.6621 156.417 37.5581 156.353 37.4861 156.257C37.4221 156.153 37.3781 156.009 37.3541 155.825C37.3381 155.633 37.3301 155.373 37.3301 155.045V153.353C37.3301 152.841 37.2781 152.441 37.1741 152.153C37.0701 151.857 36.9501 151.617 36.8141 151.433C36.5661 151.105 36.2821 150.873 35.9621 150.737C35.6501 150.593 35.2381 150.521 34.7261 150.521C34.2941 150.521 33.8981 150.613 33.5381 150.797C33.1781 150.981 32.8661 151.241 32.6021 151.577H32.5541L32.3981 150.521L30.0821 150.977V151.385C30.2661 151.385 30.4181 151.393 30.5381 151.409C30.6581 151.417 30.7581 151.441 30.8381 151.481C30.9181 151.513 30.9781 151.565 31.0181 151.637C31.0581 151.701 31.0901 151.785 31.1141 151.889C31.1381 151.993 31.1581 152.193 31.1741 152.489C31.1901 152.777 31.1981 153.157 31.1981 153.629V155.129C31.1981 155.433 31.1861 155.673 31.1621 155.849C31.1381 156.025 31.0861 156.161 31.0061 156.257C30.9341 156.353 30.8261 156.417 30.6821 156.449C30.5461 156.481 30.3621 156.505 30.1301 156.521V157.001H33.9101V156.521C33.6701 156.505 33.4781 156.481 33.3341 156.449C33.1981 156.417 33.0941 156.353 33.0221 156.257C32.9581 156.153 32.9141 156.009 32.8901 155.825ZM44.2248 156.233H44.2728V157.121L46.5528 156.989V156.521C46.3848 156.521 46.2448 156.517 46.1328 156.509C46.0288 156.493 45.9448 156.469 45.8808 156.437C45.8168 156.397 45.7688 156.345 45.7368 156.281C45.7048 156.217 45.6808 156.133 45.6648 156.029C45.6328 155.861 45.6088 155.617 45.5928 155.297C45.5848 154.969 45.5808 154.505 45.5808 153.905V147.041L42.5448 147.521V147.929C42.9688 147.929 43.2808 147.969 43.4808 148.049C43.6888 148.121 43.8128 148.241 43.8528 148.409C43.8768 148.513 43.8928 148.737 43.9008 149.081C43.9168 149.417 43.9248 149.821 43.9248 150.293V151.313H43.8768C43.6448 151.025 43.3728 150.821 43.0608 150.701C42.7568 150.581 42.4048 150.521 42.0048 150.521C41.5728 150.521 41.1688 150.605 40.7928 150.773C40.4248 150.941 40.1048 151.177 39.8328 151.481C39.5688 151.777 39.3568 152.129 39.1968 152.537C39.0448 152.945 38.9688 153.389 38.9688 153.869C38.9688 154.349 39.0448 154.789 39.1968 155.189C39.3488 155.581 39.5608 155.921 39.8328 156.209C40.1128 156.497 40.4408 156.721 40.8168 156.881C41.2008 157.041 41.6208 157.121 42.0768 157.121C42.9568 157.121 43.6728 156.825 44.2248 156.233ZM43.8048 152.717C43.8688 152.973 43.9008 153.253 43.9008 153.557V154.025C43.9008 154.433 43.8728 154.769 43.8168 155.033C43.7688 155.289 43.6888 155.505 43.5768 155.681C43.4248 155.913 43.2288 156.097 42.9888 156.233C42.7488 156.369 42.4968 156.437 42.2328 156.437C41.7688 156.437 41.4128 156.213 41.1648 155.765C40.9168 155.317 40.7928 154.677 40.7928 153.845C40.7928 153.021 40.9168 152.393 41.1648 151.961C41.4128 151.529 41.7728 151.313 42.2448 151.313C42.5008 151.313 42.7408 151.373 42.9648 151.493C43.1888 151.613 43.3728 151.789 43.5168 152.021C43.6448 152.221 43.7408 152.453 43.8048 152.717ZM49.4369 154.433C49.7809 154.169 50.2889 153.885 50.9609 153.581V154.721C50.9609 154.897 50.9249 155.065 50.8529 155.225C50.7889 155.377 50.6969 155.509 50.5769 155.621C50.4569 155.733 50.3129 155.825 50.1449 155.897C49.9769 155.961 49.7969 155.993 49.6049 155.993C49.4129 155.993 49.2529 155.925 49.1249 155.789C48.9969 155.653 48.9329 155.469 48.9329 155.237C48.9329 154.957 49.1009 154.689 49.4369 154.433ZM50.9609 152.441V152.945L49.2689 153.677C48.5409 153.973 48.0209 154.277 47.7089 154.589C47.3969 154.893 47.2409 155.221 47.2409 155.573C47.2409 156.029 47.3929 156.401 47.6969 156.689C48.0009 156.969 48.4049 157.109 48.9089 157.109C49.3809 157.109 49.8009 157.001 50.1689 156.785C50.5369 156.569 50.8369 156.253 51.0689 155.837H51.1289C51.1289 156.245 51.2249 156.561 51.4169 156.785C51.6089 157.009 51.8889 157.121 52.2569 157.121C52.5529 157.121 52.8169 157.065 53.0489 156.953C53.2889 156.833 53.4649 156.673 53.5769 156.473L53.3969 156.125C53.2689 156.229 53.1289 156.281 52.9769 156.281C52.7049 156.281 52.5689 155.941 52.5689 155.261V152.633C52.5689 151.873 52.3769 151.333 51.9929 151.013C51.6089 150.685 50.9689 150.521 50.0729 150.521C49.2249 150.521 48.5889 150.633 48.1649 150.857C47.7489 151.081 47.5409 151.385 47.5409 151.769C47.5409 152.017 47.6009 152.209 47.7209 152.345C47.8409 152.481 48.0129 152.549 48.2369 152.549C48.4689 152.549 48.6489 152.493 48.7769 152.381C48.9129 152.269 49.0169 152.113 49.0889 151.913C49.1929 151.625 49.3049 151.421 49.4249 151.301C49.5449 151.173 49.7209 151.109 49.9529 151.109C50.2969 151.109 50.5489 151.217 50.7089 151.433C50.8769 151.641 50.9609 151.977 50.9609 152.441ZM58.9195 156.785C59.3755 156.601 59.7555 156.341 60.0595 156.005L59.7475 155.549C59.4515 155.781 59.1395 155.961 58.8115 156.089C58.4835 156.209 58.1555 156.269 57.8275 156.269C57.2515 156.269 56.8075 156.045 56.4955 155.597C56.1915 155.149 56.0395 154.509 56.0395 153.677C56.0395 152.901 56.1675 152.297 56.4235 151.865C56.6795 151.433 57.0395 151.217 57.5035 151.217C57.6075 151.217 57.6955 151.229 57.7675 151.253C57.8395 151.269 57.9115 151.309 57.9835 151.373C58.0555 151.429 58.1315 151.513 58.2115 151.625C58.2995 151.737 58.4035 151.889 58.5235 152.081C58.6595 152.297 58.7955 152.453 58.9315 152.549C59.0755 152.645 59.2395 152.693 59.4235 152.693C59.6475 152.693 59.8235 152.625 59.9515 152.489C60.0875 152.353 60.1555 152.169 60.1555 151.937C60.1555 151.737 60.0915 151.553 59.9635 151.385C59.8355 151.209 59.6595 151.057 59.4355 150.929C59.2195 150.801 58.9555 150.701 58.6435 150.629C58.3395 150.557 58.0075 150.521 57.6475 150.521C57.1355 150.521 56.6675 150.601 56.2435 150.761C55.8195 150.921 55.4555 151.149 55.1515 151.445C54.8475 151.733 54.6115 152.081 54.4435 152.489C54.2755 152.897 54.1915 153.349 54.1915 153.845C54.1915 154.325 54.2675 154.765 54.4195 155.165C54.5795 155.557 54.8035 155.893 55.0915 156.173C55.3795 156.453 55.7235 156.673 56.1235 156.833C56.5235 156.985 56.9675 157.061 57.4555 157.061C57.9835 157.061 58.4715 156.969 58.9195 156.785ZM63.6169 155.801C63.5929 155.609 63.5809 155.353 63.5809 155.033V150.521L60.7969 150.977V151.385C61.1649 151.385 61.4169 151.417 61.5529 151.481C61.6969 151.545 61.7889 151.677 61.8289 151.877C61.8529 151.989 61.8729 152.197 61.8889 152.501C61.9049 152.797 61.9129 153.177 61.9129 153.641V155.117C61.9129 155.397 61.8969 155.629 61.8649 155.813C61.8409 155.989 61.7889 156.129 61.7089 156.233C61.6369 156.329 61.5289 156.401 61.3849 156.449C61.2489 156.489 61.0689 156.513 60.8449 156.521V157.001H64.6249V156.521C64.3929 156.513 64.2089 156.493 64.0729 156.461C63.9369 156.421 63.8329 156.349 63.7609 156.245C63.6889 156.141 63.6409 155.993 63.6169 155.801ZM62.0809 147.317C61.9049 147.493 61.8169 147.713 61.8169 147.977C61.8169 148.233 61.9049 148.453 62.0809 148.637C62.2649 148.813 62.4849 148.901 62.7409 148.901C63.0049 148.901 63.2249 148.813 63.4009 148.637C63.5849 148.453 63.6769 148.233 63.6769 147.977C63.6769 147.713 63.5849 147.493 63.4009 147.317C63.2249 147.133 63.0049 147.041 62.7409 147.041C62.4849 147.041 62.2649 147.133 62.0809 147.317ZM70.1249 150.773C69.7009 150.605 69.2489 150.521 68.7689 150.521C68.2969 150.521 67.8489 150.601 67.4249 150.761C67.0009 150.921 66.6289 151.145 66.3089 151.433C65.9889 151.721 65.7369 152.065 65.5529 152.465C65.3689 152.865 65.2769 153.301 65.2769 153.773C65.2769 154.261 65.3689 154.713 65.5529 155.129C65.7369 155.537 65.9889 155.889 66.3089 156.185C66.6289 156.481 67.0009 156.713 67.4249 156.881C67.8489 157.041 68.2969 157.121 68.7689 157.121C69.2489 157.121 69.7009 157.037 70.1249 156.869C70.5569 156.701 70.9329 156.469 71.2529 156.173C71.5809 155.877 71.8369 155.525 72.0209 155.117C72.2129 154.709 72.3089 154.261 72.3089 153.773C72.3089 153.301 72.2129 152.869 72.0209 152.477C71.8369 152.077 71.5809 151.733 71.2529 151.445C70.9329 151.157 70.5569 150.933 70.1249 150.773ZM68.1089 151.409C68.3089 151.281 68.5289 151.217 68.7689 151.217C69.0169 151.217 69.2409 151.281 69.4409 151.409C69.6489 151.529 69.8249 151.705 69.9689 151.937C70.1129 152.161 70.2249 152.429 70.3049 152.741C70.3849 153.053 70.4249 153.401 70.4249 153.785C70.4249 154.177 70.3849 154.533 70.3049 154.853C70.2249 155.173 70.1129 155.449 69.9689 155.681C69.8249 155.905 69.6489 156.081 69.4409 156.209C69.2409 156.329 69.0169 156.389 68.7689 156.389C68.5209 156.389 68.2969 156.329 68.0969 156.209C67.9049 156.081 67.7369 155.905 67.5929 155.681C67.4569 155.457 67.3489 155.185 67.2689 154.865C67.1969 154.545 67.1609 154.185 67.1609 153.785C67.1609 153.401 67.1969 153.053 67.2689 152.741C67.3489 152.421 67.4569 152.149 67.5929 151.925C67.7369 151.701 67.9089 151.529 68.1089 151.409ZM69.1049 147.761L67.5809 149.189H68.2889L69.9569 148.469C70.2129 148.357 70.4129 148.249 70.5569 148.145C70.7089 148.041 70.7849 147.921 70.7849 147.785C70.7849 147.617 70.7249 147.485 70.6049 147.389C70.4849 147.293 70.3249 147.245 70.1249 147.245C69.9649 147.245 69.8009 147.285 69.6329 147.365C69.4729 147.445 69.2969 147.577 69.1049 147.761ZM75.8627 155.825C75.8467 155.633 75.8387 155.373 75.8387 155.045V153.389C75.8387 153.141 75.8627 152.905 75.9107 152.681C75.9667 152.449 76.0307 152.261 76.1027 152.117C76.2387 151.861 76.3987 151.661 76.5827 151.517C76.7667 151.373 76.9867 151.301 77.2427 151.301C77.5067 151.301 77.7267 151.341 77.9027 151.421C78.0787 151.493 78.2187 151.617 78.3227 151.793C78.4347 151.961 78.5147 152.185 78.5627 152.465C78.6107 152.745 78.6347 153.089 78.6347 153.497V155.129C78.6347 155.425 78.6227 155.665 78.5987 155.849C78.5747 156.025 78.5267 156.161 78.4547 156.257C78.3827 156.353 78.2747 156.421 78.1307 156.461C77.9947 156.493 77.8067 156.513 77.5667 156.521V157.001H81.3227V156.521C81.0907 156.505 80.9067 156.481 80.7707 156.449C80.6347 156.417 80.5307 156.353 80.4587 156.257C80.3947 156.153 80.3507 156.009 80.3267 155.825C80.3107 155.633 80.3027 155.373 80.3027 155.045V153.353C80.3027 152.841 80.2507 152.441 80.1467 152.153C80.0427 151.857 79.9227 151.617 79.7867 151.433C79.5387 151.105 79.2547 150.873 78.9347 150.737C78.6227 150.593 78.2107 150.521 77.6987 150.521C77.2667 150.521 76.8707 150.613 76.5107 150.797C76.1507 150.981 75.8387 151.241 75.5747 151.577H75.5267L75.3707 150.521L73.0547 150.977V151.385C73.2387 151.385 73.3907 151.393 73.5107 151.409C73.6307 151.417 73.7307 151.441 73.8107 151.481C73.8907 151.513 73.9507 151.565 73.9907 151.637C74.0307 151.701 74.0627 151.785 74.0867 151.889C74.1107 151.993 74.1307 152.193 74.1467 152.489C74.1627 152.777 74.1707 153.157 74.1707 153.629V155.129C74.1707 155.433 74.1587 155.673 74.1347 155.849C74.1107 156.025 74.0587 156.161 73.9787 156.257C73.9067 156.353 73.7987 156.417 73.6547 156.449C73.5187 156.481 73.3347 156.505 73.1027 156.521V157.001H76.8827V156.521C76.6427 156.505 76.4507 156.481 76.3067 156.449C76.1707 156.417 76.0667 156.353 75.9947 156.257C75.9307 156.153 75.8867 156.009 75.8627 155.825ZM30.6008 167.433C30.6008 169.449 29.8168 170.989 28.2488 172.053C26.6808 173.098 24.4035 173.621 21.4168 173.621H19.0368V178.549C19.0368 179.258 19.0835 179.837 19.1768 180.285C19.2702 180.714 19.4662 181.05 19.7648 181.293C20.0635 181.536 20.4742 181.694 20.9968 181.769C21.5195 181.844 22.2195 181.881 23.0968 181.881V183.001H11.9808V181.881C12.5968 181.862 13.1008 181.806 13.4928 181.713C13.8848 181.62 14.1835 181.461 14.3888 181.237C14.5942 181.013 14.7342 180.696 14.8088 180.285C14.8835 179.874 14.9208 179.342 14.9208 178.689V165.753C14.9208 165.1 14.8835 164.577 14.8088 164.185C14.7528 163.774 14.6315 163.457 14.4448 163.233C14.2582 162.99 13.9875 162.831 13.6328 162.757C13.2968 162.663 12.8488 162.598 12.2888 162.561V161.441H21.9768C24.8142 161.441 26.9608 161.945 28.4168 162.953C29.8728 163.961 30.6008 165.454 30.6008 167.433ZM19.0368 171.941H20.8568C22.6675 171.941 23.9928 171.577 24.8328 170.849C25.6728 170.121 26.0928 168.973 26.0928 167.405C26.0928 166.005 25.7382 164.922 25.0288 164.157C24.3195 163.392 23.2088 163.009 21.6968 163.009H19.5408C19.2048 163.009 19.0368 163.168 19.0368 163.485V171.941ZM39.1071 171.073C40.3018 171.073 41.2631 171.036 41.9911 170.961C42.7191 170.886 43.2791 170.737 43.6711 170.513C44.0818 170.27 44.3711 169.925 44.5391 169.477C44.7071 169.029 44.8378 168.422 44.9311 167.657H45.9671V175.861H44.9311C44.8191 175.114 44.6698 174.517 44.4831 174.069C44.2965 173.621 43.9978 173.285 43.5871 173.061C43.1765 172.818 42.6165 172.669 41.9071 172.613C41.2165 172.538 40.2831 172.501 39.1071 172.501V178.269C39.1071 178.866 39.1818 179.37 39.3311 179.781C39.4991 180.192 39.7698 180.528 40.1431 180.789C40.5165 181.032 41.0111 181.209 41.6271 181.321C42.2431 181.414 42.9991 181.461 43.8951 181.461C44.9591 181.461 45.8551 181.386 46.5831 181.237C47.3298 181.088 47.9458 180.826 48.4311 180.453C48.9165 180.079 49.3085 179.585 49.6072 178.969C49.9058 178.334 50.1578 177.541 50.3631 176.589H51.4831L51.0351 183.001H32.0511V181.881C32.6671 181.862 33.1711 181.806 33.5631 181.713C33.9551 181.62 34.2538 181.461 34.4591 181.237C34.6645 181.013 34.8045 180.696 34.8791 180.285C34.9538 179.874 34.9911 179.342 34.9911 178.689V165.753C34.9911 165.1 34.9538 164.577 34.8791 164.185C34.8231 163.774 34.7018 163.457 34.5151 163.233C34.3285 162.99 34.0578 162.831 33.7031 162.757C33.3671 162.663 32.9191 162.598 32.3591 162.561V161.441H50.0551L50.2511 166.929H49.0471C48.9351 166.145 48.7578 165.501 48.5151 164.997C48.2725 164.474 47.9365 164.064 47.5071 163.765C47.0778 163.448 46.5178 163.233 45.8271 163.121C45.1551 162.99 44.3245 162.925 43.3351 162.925H40.1711C39.6858 162.925 39.3871 162.99 39.2751 163.121C39.1631 163.233 39.1071 163.513 39.1071 163.961V171.073ZM75.274 167.601H74.07C74.014 166.686 73.874 165.93 73.65 165.333C73.4446 164.717 73.146 164.232 72.754 163.877C72.362 163.504 71.886 163.252 71.326 163.121C70.766 162.972 70.1126 162.897 69.366 162.897C68.638 162.897 68.05 162.916 67.602 162.953C67.1726 162.972 66.8366 163.018 66.594 163.093C66.37 163.149 66.2206 163.233 66.146 163.345C66.0713 163.457 66.034 163.597 66.034 163.765V178.437C66.034 179.034 66.0713 179.548 66.146 179.977C66.2393 180.406 66.4166 180.761 66.678 181.041C66.9393 181.302 67.322 181.508 67.826 181.657C68.33 181.788 68.9926 181.862 69.814 181.881V183.001H58.082V181.881C58.922 181.862 59.594 181.788 60.098 181.657C60.602 181.508 60.9846 181.302 61.246 181.041C61.526 180.761 61.7033 180.406 61.778 179.977C61.8713 179.548 61.918 179.034 61.918 178.437V163.765C61.918 163.597 61.8806 163.457 61.806 163.345C61.75 163.233 61.6193 163.149 61.414 163.093C61.2086 163.018 60.91 162.972 60.518 162.953C60.1446 162.916 59.65 162.897 59.034 162.897C58.362 162.897 57.718 162.934 57.102 163.009C56.486 163.065 55.9446 163.252 55.478 163.569C55.0113 163.868 54.6286 164.334 54.33 164.969C54.05 165.585 53.9006 166.462 53.882 167.601H52.79L53.07 161.441H74.994L75.274 167.601ZM104.771 178.493C104.771 179.202 104.799 179.781 104.855 180.229C104.93 180.658 105.07 180.994 105.275 181.237C105.499 181.461 105.798 181.62 106.171 181.713C106.563 181.806 107.077 181.862 107.711 181.881V183.001H97.4353V181.881C98.126 181.862 98.6766 181.806 99.0873 181.713C99.5166 181.62 99.8433 181.461 100.067 181.237C100.31 181.013 100.469 180.696 100.543 180.285C100.618 179.874 100.655 179.342 100.655 178.689V172.837H90.2673V178.493C90.2673 179.202 90.3046 179.781 90.3793 180.229C90.454 180.658 90.6033 180.994 90.8273 181.237C91.0513 181.461 91.3686 181.62 91.7793 181.713C92.2086 181.806 92.7686 181.862 93.4593 181.881V183.001H83.2113V181.881C83.846 181.862 84.35 181.806 84.7233 181.713C85.1153 181.62 85.414 181.461 85.6193 181.237C85.8246 181.013 85.9646 180.696 86.0393 180.285C86.114 179.874 86.1513 179.342 86.1513 178.689V165.753C86.1513 165.1 86.114 164.577 86.0393 164.185C85.9833 163.774 85.862 163.457 85.6753 163.233C85.4886 162.99 85.218 162.831 84.8633 162.757C84.5273 162.663 84.0793 162.598 83.5193 162.561V161.441H93.1793V162.561C92.5446 162.579 92.0313 162.635 91.6393 162.729C91.266 162.822 90.9766 162.99 90.7713 163.233C90.566 163.476 90.426 163.812 90.3513 164.241C90.2953 164.67 90.2673 165.24 90.2673 165.949V171.101H100.655V165.753C100.655 165.1 100.618 164.577 100.543 164.185C100.469 163.774 100.329 163.457 100.123 163.233C99.918 162.99 99.6193 162.831 99.2273 162.757C98.854 162.663 98.35 162.598 97.7153 162.561V161.441H107.403V162.561C106.843 162.579 106.386 162.635 106.031 162.729C105.695 162.822 105.434 162.99 105.247 163.233C105.061 163.476 104.93 163.812 104.855 164.241C104.799 164.67 104.771 165.24 104.771 165.949V178.493ZM121.588 161.161C123.268 161.161 124.836 161.45 126.292 162.029C127.748 162.607 129.008 163.401 130.072 164.409C131.155 165.417 132.004 166.602 132.62 167.965C133.236 169.327 133.544 170.802 133.544 172.389C133.544 173.901 133.227 175.32 132.592 176.645C131.976 177.97 131.127 179.128 130.044 180.117C128.98 181.088 127.72 181.862 126.264 182.441C124.808 183.001 123.249 183.281 121.588 183.281C119.927 183.281 118.368 183.001 116.912 182.441C115.456 181.862 114.187 181.088 113.104 180.117C112.021 179.128 111.172 177.97 110.556 176.645C109.94 175.32 109.632 173.901 109.632 172.389C109.632 170.802 109.94 169.327 110.556 167.965C111.172 166.602 112.012 165.417 113.076 164.409C114.159 163.401 115.428 162.607 116.884 162.029C118.34 161.45 119.908 161.161 121.588 161.161ZM121.588 181.461C122.671 181.461 123.651 181.256 124.528 180.845C125.405 180.416 126.152 179.818 126.768 179.053C127.384 178.269 127.851 177.326 128.168 176.225C128.504 175.105 128.672 173.854 128.672 172.473C128.672 171.017 128.504 169.71 128.168 168.553C127.851 167.377 127.384 166.378 126.768 165.557C126.152 164.717 125.405 164.082 124.528 163.653C123.651 163.205 122.671 162.981 121.588 162.981C120.487 162.981 119.497 163.205 118.62 163.653C117.761 164.082 117.024 164.717 116.408 165.557C115.792 166.378 115.316 167.377 114.98 168.553C114.663 169.71 114.504 171.017 114.504 172.473C114.504 173.854 114.663 175.105 114.98 176.225C115.316 177.326 115.792 178.269 116.408 179.053C117.024 179.818 117.761 180.416 118.62 180.845C119.497 181.256 120.487 181.461 121.588 181.461ZM155.763 174.321C155.763 175.908 155.586 177.27 155.231 178.409C154.895 179.529 154.363 180.453 153.635 181.181C152.907 181.909 151.965 182.441 150.807 182.777C149.669 183.113 148.297 183.281 146.691 183.281C143.686 183.281 141.483 182.656 140.083 181.405C138.702 180.136 138.011 178.12 138.011 175.357V167.685C138.011 166.957 138.002 166.35 137.983 165.865C137.965 165.361 137.937 164.941 137.899 164.605C137.862 164.269 137.806 163.998 137.731 163.793C137.675 163.569 137.601 163.382 137.507 163.233C137.339 162.972 137.097 162.794 136.779 162.701C136.462 162.607 135.977 162.561 135.323 162.561V161.441H145.375V162.561C144.591 162.561 144.013 162.607 143.639 162.701C143.266 162.776 142.977 162.934 142.771 163.177C142.641 163.326 142.529 163.513 142.435 163.737C142.361 163.942 142.295 164.222 142.239 164.577C142.202 164.913 142.174 165.333 142.155 165.837C142.137 166.341 142.127 166.957 142.127 167.685V175.021C142.127 177.149 142.575 178.726 143.471 179.753C144.386 180.761 145.786 181.265 147.671 181.265C151.517 181.265 153.439 179.128 153.439 174.853V168.385C153.439 167.601 153.421 166.929 153.383 166.369C153.365 165.809 153.318 165.333 153.243 164.941C153.187 164.549 153.103 164.222 152.991 163.961C152.898 163.7 152.777 163.485 152.627 163.317C152.366 163.056 152.03 162.869 151.619 162.757C151.209 162.626 150.639 162.561 149.911 162.561V161.441H158.983V162.561C158.293 162.561 157.761 162.617 157.387 162.729C157.014 162.822 156.725 163 156.519 163.261C156.37 163.429 156.249 163.653 156.155 163.933C156.062 164.194 155.987 164.53 155.931 164.941C155.875 165.333 155.829 165.809 155.791 166.369C155.773 166.929 155.763 167.601 155.763 168.385V174.321ZM160.716 175.861H161.808C162.069 177.634 162.779 179.034 163.936 180.061C165.093 181.069 166.521 181.573 168.22 181.573C168.911 181.573 169.545 181.489 170.124 181.321C170.703 181.153 171.197 180.92 171.608 180.621C172.019 180.304 172.336 179.939 172.56 179.529C172.784 179.1 172.896 178.624 172.896 178.101C172.896 177.653 172.821 177.27 172.672 176.953C172.541 176.617 172.28 176.299 171.888 176.001C171.496 175.684 170.955 175.366 170.264 175.049C169.592 174.732 168.715 174.368 167.632 173.957C165.448 173.117 163.833 172.146 162.788 171.045C161.743 169.925 161.22 168.609 161.22 167.097C161.22 166.22 161.388 165.417 161.724 164.689C162.06 163.961 162.527 163.336 163.124 162.813C163.74 162.29 164.468 161.889 165.308 161.609C166.167 161.31 167.109 161.161 168.136 161.161C169.088 161.161 169.984 161.31 170.824 161.609C171.664 161.908 172.495 162.355 173.316 162.953L173.82 161.553H174.492L174.8 167.601H173.708C173.26 166.07 172.56 164.904 171.608 164.101C170.656 163.28 169.555 162.869 168.304 162.869C167.147 162.869 166.204 163.158 165.476 163.737C164.767 164.297 164.412 165.025 164.412 165.921C164.412 166.313 164.477 166.668 164.608 166.985C164.739 167.284 164.981 167.573 165.336 167.853C165.691 168.133 166.176 168.422 166.792 168.721C167.408 169.001 168.201 169.318 169.172 169.673C170.479 170.177 171.589 170.69 172.504 171.213C173.437 171.717 174.193 172.268 174.772 172.865C175.369 173.444 175.808 174.06 176.088 174.713C176.368 175.366 176.508 176.085 176.508 176.869C176.508 177.821 176.303 178.689 175.892 179.473C175.481 180.257 174.903 180.929 174.156 181.489C173.428 182.049 172.551 182.488 171.524 182.805C170.516 183.122 169.396 183.281 168.164 183.281C167.044 183.281 166.036 183.132 165.14 182.833C164.244 182.516 163.32 182.012 162.368 181.321L161.808 183.001H161.136L160.716 175.861ZM185.806 171.073C187.001 171.073 187.962 171.036 188.69 170.961C189.418 170.886 189.978 170.737 190.37 170.513C190.781 170.27 191.07 169.925 191.238 169.477C191.406 169.029 191.537 168.422 191.63 167.657H192.666V175.861H191.63C191.518 175.114 191.369 174.517 191.182 174.069C190.996 173.621 190.697 173.285 190.286 173.061C189.876 172.818 189.316 172.669 188.606 172.613C187.916 172.538 186.982 172.501 185.806 172.501V178.269C185.806 178.866 185.881 179.37 186.03 179.781C186.198 180.192 186.469 180.528 186.842 180.789C187.216 181.032 187.71 181.209 188.326 181.321C188.942 181.414 189.698 181.461 190.594 181.461C191.658 181.461 192.554 181.386 193.282 181.237C194.029 181.088 194.645 180.826 195.13 180.453C195.616 180.079 196.008 179.585 196.306 178.969C196.605 178.334 196.857 177.541 197.062 176.589H198.182L197.734 183.001H178.75V181.881C179.366 181.862 179.87 181.806 180.262 181.713C180.654 181.62 180.953 181.461 181.158 181.237C181.364 181.013 181.504 180.696 181.578 180.285C181.653 179.874 181.69 179.342 181.69 178.689V165.753C181.69 165.1 181.653 164.577 181.578 164.185C181.522 163.774 181.401 163.457 181.214 163.233C181.028 162.99 180.757 162.831 180.402 162.757C180.066 162.663 179.618 162.598 179.058 162.561V161.441H196.754L196.95 166.929H195.746C195.634 166.145 195.457 165.501 195.214 164.997C194.972 164.474 194.636 164.064 194.206 163.765C193.777 163.448 193.217 163.233 192.526 163.121C191.854 162.99 191.024 162.925 190.034 162.925H186.87C186.385 162.925 186.086 162.99 185.974 163.121C185.862 163.233 185.806 163.513 185.806 163.961V171.073ZM91.1448 187.521H89.9688L89.5128 189.009C88.5208 188.401 87.6008 187.961 86.7528 187.689C85.9048 187.417 84.9928 187.281 84.0168 187.281C82.5448 187.281 81.2008 187.521 79.9848 188.001C78.7848 188.465 77.7448 189.129 76.8648 189.993C76.0008 190.857 75.3288 191.889 74.8488 193.089C74.3688 194.289 74.1288 195.617 74.1288 197.073C74.1288 198.465 74.3528 199.729 74.8008 200.865C75.2648 202.001 75.9128 202.969 76.7448 203.769C77.5768 204.553 78.5848 205.161 79.7688 205.593C80.9528 206.025 82.2728 206.241 83.7288 206.241C86.2408 206.241 88.3768 205.529 90.1368 204.105L90.4728 206.001H91.6008V199.497H90.5448C90.0968 201.209 89.3448 202.497 88.2888 203.361C87.2488 204.225 85.9288 204.657 84.3288 204.657C82.3448 204.657 80.8408 203.993 79.8168 202.665C78.8088 201.321 78.3048 199.409 78.3048 196.929C78.3048 195.681 78.4328 194.561 78.6888 193.569C78.9608 192.561 79.3448 191.713 79.8408 191.025C80.3528 190.321 80.9768 189.785 81.7128 189.417C82.4488 189.033 83.2888 188.841 84.2328 188.841C85.6088 188.841 86.7768 189.265 87.7368 190.113C88.7128 190.961 89.3688 192.121 89.7048 193.593H90.6648L91.1448 187.521ZM103.343 193.545C102.495 193.209 101.591 193.041 100.631 193.041C99.6866 193.041 98.7906 193.201 97.9426 193.521C97.0946 193.841 96.3507 194.289 95.7107 194.865C95.0706 195.441 94.5666 196.129 94.1986 196.929C93.8306 197.729 93.6466 198.601 93.6466 199.545C93.6466 200.521 93.8306 201.425 94.1986 202.257C94.5666 203.073 95.0706 203.777 95.7107 204.369C96.3507 204.961 97.0946 205.425 97.9426 205.761C98.7906 206.081 99.6866 206.241 100.631 206.241C101.591 206.241 102.495 206.073 103.343 205.737C104.207 205.401 104.959 204.937 105.599 204.345C106.255 203.753 106.767 203.049 107.135 202.233C107.519 201.417 107.711 200.521 107.711 199.545C107.711 198.601 107.519 197.737 107.135 196.953C106.767 196.153 106.255 195.465 105.599 194.889C104.959 194.313 104.207 193.865 103.343 193.545ZM99.3106 194.817C99.7107 194.561 100.151 194.433 100.631 194.433C101.127 194.433 101.575 194.561 101.975 194.817C102.391 195.057 102.743 195.409 103.031 195.873C103.319 196.321 103.543 196.857 103.703 197.481C103.863 198.105 103.943 198.801 103.943 199.569C103.943 200.353 103.863 201.065 103.703 201.705C103.543 202.345 103.319 202.897 103.031 203.361C102.743 203.809 102.391 204.161 101.975 204.417C101.575 204.657 101.127 204.777 100.631 204.777C100.135 204.777 99.6866 204.657 99.2866 204.417C98.9026 204.161 98.5666 203.809 98.2786 203.361C98.0066 202.913 97.7906 202.369 97.6306 201.729C97.4866 201.089 97.4146 200.369 97.4146 199.569C97.4146 198.801 97.4866 198.105 97.6306 197.481C97.7906 196.841 98.0066 196.297 98.2786 195.849C98.5666 195.401 98.9106 195.057 99.3106 194.817ZM114.602 203.601C114.554 203.217 114.53 202.705 114.53 202.065V186.081L108.962 186.993V187.809C109.698 187.809 110.202 187.873 110.474 188.001C110.762 188.129 110.946 188.393 111.026 188.793C111.074 189.017 111.114 189.433 111.146 190.041C111.178 190.633 111.194 191.393 111.194 192.321V202.233C111.194 202.793 111.162 203.257 111.098 203.625C111.05 203.977 110.946 204.257 110.786 204.465C110.642 204.657 110.426 204.801 110.138 204.897C109.866 204.977 109.506 205.025 109.058 205.041V206.001H116.618V205.041C116.154 205.025 115.786 204.985 115.514 204.921C115.242 204.841 115.034 204.697 114.89 204.489C114.746 204.281 114.65 203.985 114.602 203.601ZM127.718 193.545C126.87 193.209 125.966 193.041 125.006 193.041C124.062 193.041 123.166 193.201 122.318 193.521C121.47 193.841 120.726 194.289 120.086 194.865C119.446 195.441 118.942 196.129 118.574 196.929C118.206 197.729 118.022 198.601 118.022 199.545C118.022 200.521 118.206 201.425 118.574 202.257C118.942 203.073 119.446 203.777 120.086 204.369C120.726 204.961 121.47 205.425 122.318 205.761C123.166 206.081 124.062 206.241 125.006 206.241C125.966 206.241 126.87 206.073 127.718 205.737C128.582 205.401 129.334 204.937 129.974 204.345C130.63 203.753 131.142 203.049 131.51 202.233C131.894 201.417 132.086 200.521 132.086 199.545C132.086 198.601 131.894 197.737 131.51 196.953C131.142 196.153 130.63 195.465 129.974 194.889C129.334 194.313 128.582 193.865 127.718 193.545ZM123.686 194.817C124.086 194.561 124.526 194.433 125.006 194.433C125.502 194.433 125.95 194.561 126.35 194.817C126.766 195.057 127.118 195.409 127.406 195.873C127.694 196.321 127.918 196.857 128.078 197.481C128.238 198.105 128.318 198.801 128.318 199.569C128.318 200.353 128.238 201.065 128.078 201.705C127.918 202.345 127.694 202.897 127.406 203.361C127.118 203.809 126.766 204.161 126.35 204.417C125.95 204.657 125.502 204.777 125.006 204.777C124.51 204.777 124.062 204.657 123.662 204.417C123.278 204.161 122.942 203.809 122.654 203.361C122.382 202.913 122.166 202.369 122.006 201.729C121.862 201.089 121.79 200.369 121.79 199.569C121.79 198.801 121.862 198.105 122.006 197.481C122.166 196.841 122.382 196.297 122.654 195.849C122.942 195.401 123.286 195.057 123.686 194.817ZM139.217 203.625C139.185 203.241 139.169 202.713 139.169 202.041V198.873C139.169 198.345 139.225 197.833 139.337 197.337C139.449 196.841 139.609 196.401 139.817 196.017C140.041 195.585 140.321 195.241 140.657 194.985C141.009 194.729 141.449 194.601 141.977 194.601C142.505 194.601 142.945 194.681 143.297 194.841C143.649 194.985 143.929 195.233 144.137 195.585C144.361 195.937 144.521 196.401 144.617 196.977C144.713 197.553 144.761 198.257 144.761 199.089V202.233C144.761 202.841 144.737 203.329 144.689 203.697C144.657 204.049 144.561 204.321 144.401 204.513C144.257 204.705 144.041 204.833 143.753 204.897C143.481 204.961 143.105 205.009 142.625 205.041V206.001H150.233V205.041C149.737 205.009 149.345 204.961 149.057 204.897C148.785 204.833 148.577 204.697 148.433 204.489C148.289 204.281 148.201 203.985 148.169 203.601C148.137 203.217 148.121 202.697 148.121 202.041V198.873C148.121 197.753 148.329 196.817 148.745 196.065C148.985 195.633 149.281 195.281 149.633 195.009C150.001 194.737 150.465 194.601 151.025 194.601C151.521 194.601 151.937 194.681 152.273 194.841C152.625 194.985 152.905 195.233 153.113 195.585C153.321 195.937 153.473 196.401 153.569 196.977C153.665 197.553 153.713 198.257 153.713 199.089V202.233C153.713 202.841 153.689 203.321 153.641 203.673C153.609 204.025 153.513 204.305 153.353 204.513C153.209 204.705 152.993 204.841 152.705 204.921C152.433 204.985 152.057 205.025 151.577 205.041V206.001H159.161V205.041C158.681 205.009 158.305 204.961 158.033 204.897C157.761 204.833 157.553 204.697 157.409 204.489C157.265 204.281 157.169 203.985 157.121 203.601C157.089 203.217 157.073 202.697 157.073 202.041V198.345C157.073 197.289 156.993 196.465 156.833 195.873C156.689 195.281 156.457 194.801 156.137 194.433C155.737 193.985 155.177 193.641 154.457 193.401C153.753 193.161 152.921 193.041 151.961 193.041C151.049 193.041 150.193 193.233 149.393 193.617C148.593 193.985 147.905 194.505 147.329 195.177H147.233C146.881 194.489 146.361 193.961 145.673 193.593C144.985 193.225 144.113 193.041 143.057 193.041C142.161 193.041 141.369 193.201 140.681 193.521C140.009 193.841 139.337 194.377 138.665 195.129H138.521L138.233 193.041L133.601 193.953V194.769C133.985 194.769 134.297 194.785 134.537 194.817C134.777 194.833 134.969 194.881 135.113 194.961C135.273 195.025 135.385 195.121 135.449 195.249C135.529 195.361 135.593 195.521 135.641 195.729C135.705 195.953 135.745 196.369 135.761 196.977C135.793 197.585 135.809 198.345 135.809 199.257V202.233C135.809 202.841 135.785 203.329 135.737 203.697C135.689 204.049 135.593 204.321 135.449 204.513C135.305 204.705 135.089 204.833 134.801 204.897C134.513 204.961 134.129 205.009 133.649 205.041V206.001H141.233V205.041C140.753 205.009 140.377 204.961 140.105 204.897C139.833 204.833 139.625 204.705 139.481 204.513C139.337 204.305 139.249 204.009 139.217 203.625ZM165.172 202.401C165.012 201.889 164.932 201.337 164.932 200.745V199.233C164.932 198.065 165.116 197.097 165.484 196.329C165.756 195.769 166.132 195.337 166.612 195.033C167.108 194.713 167.644 194.553 168.22 194.553C169.196 194.553 169.924 194.993 170.404 195.873C170.9 196.737 171.148 198.001 171.148 199.665C171.148 201.377 170.9 202.673 170.404 203.553C169.908 204.433 169.18 204.873 168.22 204.873C167.74 204.873 167.3 204.769 166.9 204.561C166.5 204.353 166.156 204.065 165.868 203.697C165.58 203.329 165.348 202.897 165.172 202.401ZM164.98 194.937H164.884V186.081L159.508 187.041V187.857C159.844 187.905 160.116 187.953 160.324 188.001C160.532 188.033 160.692 188.081 160.804 188.145C160.932 188.193 161.028 188.257 161.092 188.337C161.156 188.417 161.212 188.513 161.26 188.625C161.468 189.185 161.572 190.217 161.572 191.721V206.001H162.388L164.212 204.393C164.676 204.953 165.292 205.409 166.06 205.761C166.844 206.097 167.676 206.265 168.556 206.265C169.404 206.265 170.204 206.097 170.956 205.761C171.724 205.425 172.388 204.961 172.948 204.369C173.524 203.777 173.972 203.081 174.292 202.281C174.628 201.465 174.796 200.577 174.796 199.617C174.796 198.705 174.644 197.849 174.34 197.049C174.036 196.249 173.612 195.553 173.068 194.961C172.54 194.369 171.908 193.905 171.172 193.569C170.452 193.217 169.668 193.041 168.82 193.041C167.988 193.041 167.244 193.209 166.588 193.545C165.932 193.865 165.396 194.329 164.98 194.937ZM181.944 203.601C181.896 203.217 181.872 202.705 181.872 202.065V193.041L176.304 193.953V194.769C177.04 194.769 177.544 194.833 177.816 194.961C178.104 195.089 178.288 195.353 178.368 195.753C178.416 195.977 178.456 196.393 178.488 197.001C178.52 197.593 178.536 198.353 178.536 199.281V202.233C178.536 202.793 178.504 203.257 178.44 203.625C178.392 203.977 178.288 204.257 178.128 204.465C177.984 204.657 177.768 204.801 177.48 204.897C177.208 204.977 176.848 205.025 176.4 205.041V206.001H183.96V205.041C183.496 205.025 183.128 204.985 182.856 204.921C182.584 204.841 182.376 204.697 182.232 204.489C182.088 204.281 181.992 203.985 181.944 203.601ZM178.872 186.633C178.52 186.985 178.344 187.425 178.344 187.953C178.344 188.465 178.52 188.905 178.872 189.273C179.24 189.625 179.68 189.801 180.192 189.801C180.72 189.801 181.16 189.625 181.512 189.273C181.88 188.905 182.064 188.465 182.064 187.953C182.064 187.425 181.88 186.985 181.512 186.633C181.16 186.265 180.72 186.081 180.192 186.081C179.68 186.081 179.24 186.265 178.872 186.633ZM189.584 200.865C190.272 200.337 191.288 199.769 192.632 199.161V201.441C192.632 201.793 192.56 202.129 192.416 202.449C192.288 202.753 192.104 203.017 191.864 203.241C191.624 203.465 191.336 203.649 191 203.793C190.664 203.921 190.304 203.985 189.92 203.985C189.536 203.985 189.216 203.849 188.96 203.577C188.704 203.305 188.576 202.937 188.576 202.473C188.576 201.913 188.912 201.377 189.584 200.865ZM192.632 196.881V197.889L189.248 199.353C187.792 199.945 186.752 200.553 186.128 201.177C185.504 201.785 185.192 202.441 185.192 203.145C185.192 204.057 185.496 204.801 186.104 205.377C186.712 205.937 187.52 206.217 188.528 206.217C189.472 206.217 190.312 206.001 191.048 205.569C191.784 205.137 192.384 204.505 192.848 203.673H192.968C192.968 204.489 193.16 205.121 193.544 205.569C193.928 206.017 194.488 206.241 195.224 206.241C195.816 206.241 196.344 206.129 196.808 205.905C197.288 205.665 197.64 205.345 197.864 204.945L197.504 204.249C197.248 204.457 196.968 204.561 196.664 204.561C196.12 204.561 195.848 203.881 195.848 202.521V197.265C195.848 195.745 195.464 194.665 194.696 194.025C193.928 193.369 192.648 193.041 190.856 193.041C189.16 193.041 187.888 193.265 187.04 193.713C186.208 194.161 185.792 194.769 185.792 195.537C185.792 196.033 185.912 196.417 186.152 196.689C186.392 196.961 186.736 197.097 187.184 197.097C187.648 197.097 188.008 196.985 188.264 196.761C188.536 196.537 188.744 196.225 188.888 195.825C189.096 195.249 189.32 194.841 189.56 194.601C189.8 194.345 190.152 194.217 190.616 194.217C191.304 194.217 191.808 194.433 192.128 194.865C192.464 195.281 192.632 195.953 192.632 196.881Z" fill="#8C52FF"/>
</svg>
